<svg id="visual" viewBox="0 0 900 600" width="900" height="600" xmlns="http://www.w3.org/2000/svg" xmlns:xlink="http://www.w3.org/1999/xlink" version="1.1"><rect x="0" y="0" width="900" height="600" fill="#002233"></rect><path d="M0 408L7.2 416C14.3 424 28.7 440 43 451.8C57.3 463.7 71.7 471.3 86 475C100.3 478.7 114.7 478.3 128.8 479.2C143 480 157 482 171.2 479.8C185.3 477.7 199.7 471.3 214 476.7C228.3 482 242.7 499 257 506C271.3 513 285.7 510 300 500C314.3 490 328.7 473 343 453.7C357.3 434.3 371.7 412.7 386 409.7C400.3 406.7 414.7 422.3 428.8 434.5C443 446.7 457 455.3 471.2 463.5C485.3 471.7 499.7 479.3 514 483.7C528.3 488 542.7 489 557 484.8C571.3 480.7 585.7 471.3 600 465.5C614.3 459.7 628.7 457.3 643 452.5C657.3 447.7 671.7 440.3 686 449.8C700.3 459.3 714.7 485.7 728.8 478.7C743 471.7 757 431.3 771.2 418.8C785.3 406.3 799.7 421.7 814 442.7C828.3 463.7 842.7 490.3 857 497.2C871.3 504 885.7 491 892.8 484.5L900 478L900 601L892.8 601C885.7 601 871.3 601 857 601C842.7 601 828.3 601 814 601C799.7 601 785.3 601 771.2 601C757 601 743 601 728.8 601C714.7 601 700.3 601 686 601C671.7 601 657.3 601 643 601C628.7 601 614.3 601 600 601C585.7 601 571.3 601 557 601C542.7 601 528.3 601 514 601C499.7 601 485.3 601 471.2 601C457 601 443 601 428.8 601C414.7 601 400.3 601 386 601C371.7 601 357.3 601 343 601C328.7 601 314.3 601 300 601C285.7 601 271.3 601 257 601C242.7 601 228.3 601 214 601C199.7 601 185.3 601 171.2 601C157 601 143 601 128.8 601C114.7 601 100.3 601 86 601C71.7 601 57.3 601 43 601C28.7 601 14.3 601 7.2 601L0 601Z" fill="#0066FF" stroke-linecap="round" stroke-linejoin="miter"></path></svg>